<svg width="85" height="75" viewBox="0 0 85 75" fill="none" xmlns="http://www.w3.org/2000/svg">
<path d="M40.4622 1.69151C40.9294 1.65366 41.4123 1.66859 41.8813 1.66391L45.0849 1.74833C48.806 2.01141 52.4993 2.73434 56.0203 3.9781C57.6374 4.54939 59.2197 5.24623 60.7611 5.99653C61.9114 6.55637 63.0085 7.2076 64.0962 7.87911C72.3177 12.9545 78.4602 20.7711 81.5907 29.8888C81.9988 31.0773 82.302 32.3007 82.5854 33.5239C84.6753 42.5454 83.6643 52.4306 79.585 60.7712L44.4754 60.759L5.18975 60.7135C2.82761 55.7661 1.5572 50.4794 1.18155 45.0206C1.01613 42.6167 1.14919 40.1236 1.45554 37.7372C1.71475 35.7181 2.08031 33.7055 2.62897 31.7428C4.22395 26.0373 7.16625 20.545 11.0682 16.0861C13.1851 13.6671 15.5228 11.4534 18.1147 9.54662C23.4101 5.65087 29.6489 3.11515 36.1399 2.1148C37.5721 1.89409 39.0175 1.78763 40.4622 1.69151Z" fill="black"/>
<path d="M22.0938 48.8929L23.0429 48.8942L23.0227 49.9928L22.0923 50.0206L22.0938 48.8929Z" fill="white"/>
<path d="M15.4873 38.5793C16.1284 38.6206 16.7307 38.7303 17.3558 38.8769C17.3017 39.0912 16.99 39.4271 16.8535 39.6182L16.4177 40.1959C16.046 39.7165 15.7271 39.1347 15.4873 38.5793Z" fill="white"/>
<path d="M69.4475 38.4468C69.5387 38.4329 69.6125 38.4198 69.7037 38.4376C69.493 39.1264 68.995 39.8864 68.61 40.4964L68.2075 40.001L67.3223 38.9569C67.4616 38.8654 67.6764 38.8295 67.8381 38.7834C68.3732 38.631 68.8951 38.5202 69.4475 38.4468Z" fill="white"/>
<path d="M31.3346 38.8523L33.4576 38.8363L33.4583 40.7324L28.4974 40.7268L26.2178 40.7195C26.6651 40.2634 27.2429 39.9608 27.8277 39.717C28.9215 39.261 30.1557 38.9735 31.3346 38.8523Z" fill="white"/>
<path d="M30.4194 41.6617L33.4579 41.6587L33.4713 46.1042L30.4369 46.1056L30.4194 41.6617Z" fill="white"/>
<path d="M37.1099 41.6684L42.5184 41.675L42.5422 45.7863L37.0947 45.8088L37.1099 41.6684Z" fill="white"/>
<path d="M45.1097 41.6782L50.5578 41.6623C50.6415 41.8022 50.5778 45.4017 50.5761 45.7989L45.0972 45.7944L45.1097 41.6782Z" fill="white"/>
<path d="M25.6765 41.6479L29.4863 41.6632L29.4976 46.0983L26.7922 46.0977L22.8838 46.1047C23.602 44.476 24.4823 42.9752 25.6765 41.6479Z" fill="white"/>
<path d="M52.438 52.3998C52.7776 52.3644 53.152 52.3576 53.4833 52.4475L53.5636 52.4705C53.8995 52.563 54.2163 52.696 54.5098 52.8852C55.1785 53.3164 55.6682 54.0089 55.8279 54.7917C55.9947 55.6094 55.8304 56.3716 55.3637 57.0586C54.8459 57.8208 54.1472 58.2746 53.2464 58.4427C52.5161 58.5268 51.8948 58.3661 51.273 57.9764C50.5502 57.5234 50.0342 56.8577 49.8563 56.0144C49.6959 55.2533 49.8501 54.4157 50.2857 53.7706C50.7922 53.0203 51.5567 52.5636 52.438 52.3998Z" fill="white"/>
<path d="M52.4814 53.0723C52.9997 53.0146 53.4745 53.0538 53.9377 53.3094C54.5158 53.6283 54.9668 54.1847 55.139 54.8244C55.2928 55.396 55.211 56.0306 54.9139 56.5393C54.5263 57.2032 53.9467 57.5614 53.2164 57.76C52.6495 57.8338 52.1143 57.7418 51.6225 57.4443C51.0884 57.1213 50.6655 56.5316 50.5335 55.9218C50.3996 55.3037 50.5246 54.6131 50.8752 54.0877C51.2649 53.5035 51.8099 53.2089 52.4814 53.0723Z" fill="black"/>
<path d="M52.6109 53.9652C52.87 53.9443 53.0772 53.9378 53.3244 54.0366C53.7056 54.189 54.0722 54.5741 54.2181 54.9562C54.3494 55.3 54.3064 55.6933 54.1397 56.0158C53.8982 56.4826 53.5282 56.7215 53.0381 56.8692C52.7616 56.8842 52.5178 56.8637 52.2617 56.7483C51.8999 56.5854 51.5811 56.2462 51.4553 55.8688C51.3351 55.5077 51.3513 55.0985 51.5293 54.7583C51.7647 54.3085 52.1438 54.0987 52.6109 53.9652Z" fill="white"/>
<path d="M52.662 54.6798C52.7834 54.6783 52.9062 54.6859 53.025 54.7132C53.2047 54.7546 53.3894 54.8915 53.4833 55.0495C53.6021 55.2494 53.6172 55.4419 53.5464 55.6602C53.4743 55.8828 53.2594 56.0053 53.0688 56.1117C52.9302 56.128 52.7641 56.1406 52.6295 56.097C52.4476 56.0382 52.2663 55.8841 52.1791 55.7135C52.0961 55.5517 52.0854 55.3033 52.1512 55.1341C52.242 54.9005 52.4445 54.7765 52.662 54.6798Z" fill="black"/>
<path d="M31.0069 52.1816C31.685 52.1322 32.2727 52.2702 32.8364 52.6543C33.5172 53.1183 34.0553 53.8755 34.2071 54.6924C34.3601 55.5162 34.1137 56.3417 33.6311 57.0147C33.069 57.7988 32.4105 58.1221 31.4734 58.2713C31.1765 58.283 30.8483 58.2919 30.5574 58.2258C29.6493 58.0192 28.9493 57.5009 28.473 56.6979C28.1055 56.0782 27.9437 55.2815 28.1327 54.5752C28.2672 54.0721 28.4577 53.6513 28.7931 53.2482C29.3679 52.5571 30.1293 52.2577 31.0069 52.1816Z" fill="white"/>
<path d="M30.962 52.8521C31.4996 52.8209 32.034 52.9244 32.4848 53.2332C33.0143 53.5957 33.4396 54.2029 33.5436 54.8383C33.6509 55.4933 33.487 56.0974 33.1024 56.633C32.6703 57.2346 32.1101 57.4672 31.4021 57.5824C30.8419 57.6107 30.2559 57.5414 29.7826 57.213C29.2433 56.8388 28.8934 56.252 28.7927 55.6056C28.6938 54.9701 28.8588 54.2984 29.2445 53.7829C29.6938 53.1825 30.231 52.9495 30.962 52.8521Z" fill="black"/>
<path d="M31.0287 53.7435C31.3492 53.733 31.6087 53.7462 31.8935 53.9181C32.235 54.1244 32.5418 54.4877 32.6319 54.8824C32.7195 55.266 32.6302 55.7191 32.4217 56.0469C32.1697 56.4433 31.8364 56.5975 31.3982 56.6973C31.0448 56.7035 30.7471 56.6915 30.4273 56.5132C30.0944 56.3275 29.8363 56.0031 29.7461 55.6314C29.6377 55.1848 29.7023 54.7461 29.9621 54.3628C30.2215 53.9801 30.5959 53.8317 31.0287 53.7435Z" fill="white"/>
<path d="M30.9425 54.4998C31.0997 54.4851 31.2555 54.4669 31.4072 54.5218C31.6102 54.5952 31.8078 54.7849 31.8909 54.9841C31.9564 55.1413 31.9548 55.3789 31.8887 55.536C31.7904 55.7697 31.5821 55.8954 31.3622 55.9955C31.247 56.009 31.1242 56.0074 31.0108 55.9803C30.8106 55.9327 30.6005 55.7701 30.5068 55.5877C30.4107 55.4007 30.3839 55.2059 30.448 55.0047C30.5328 54.7386 30.7078 54.6289 30.9425 54.4998Z" fill="black"/>
<path d="M48.0897 55.8668L48.8923 55.848C48.9999 56.0724 49.0276 56.3629 49.0937 56.6052C49.4033 57.7394 50.1633 58.4393 51.1534 59.0029L35.6331 58.9794L32.4517 58.9561C32.7377 58.845 33.0382 58.736 33.2993 58.5723C34.2396 57.9827 34.8588 56.9419 35.112 55.8852L48.0897 55.8668Z" fill="white"/>
<path d="M24.4201 47.0242L33.4493 47.0491L33.4526 47.7853L27.7101 47.7754C27.373 47.7747 25.8088 47.6977 25.6027 47.8564C25.4845 47.9475 25.428 48.053 25.4238 48.2024C25.42 48.3407 25.458 48.4947 25.5553 48.597C25.6564 48.7031 25.7356 48.7218 25.8811 48.736C26.6542 48.8118 27.5029 48.742 28.2826 48.7406L33.4589 48.7167L33.4556 51.468L33.4437 51.8914C33.3517 51.8838 33.3862 51.8972 33.3068 51.8487C32.8029 51.5407 32.2473 51.3281 31.6598 51.2467C30.6437 51.1058 29.5508 51.3751 28.7338 52.0003C27.7483 52.7546 27.3043 53.7236 27.1434 54.9278L23.5369 54.9525C23.3107 54.6487 23.1537 54.2288 22.9033 53.9575C22.7031 53.7408 22.3761 53.7846 22.1075 53.7842L22.0957 50.959C22.5689 50.9597 23.2988 51.079 23.6621 50.7212C23.8941 50.4927 23.93 50.1884 23.935 49.8811C23.9435 49.3626 24.0607 48.5901 23.6528 48.1946C23.2862 47.8391 22.6338 47.9553 22.1602 47.9562L22.422 47.0292L24.4201 47.0242Z" fill="white"/>
<path d="M34.8944 48.6849L61.9796 48.6702L61.984 49.2325L54.8315 49.2163L41.9273 49.2059L37.6913 49.218L36.7524 49.228C36.6282 49.2308 36.4416 49.2174 36.3273 49.2611C36.277 49.2802 36.2374 49.3005 36.1983 49.3389C36.1207 49.4149 36.0894 49.5281 36.0866 49.6339C36.0825 49.7893 36.131 49.9118 36.2438 50.02C36.3213 50.0943 36.4018 50.125 36.5089 50.1345C37.3801 50.2108 38.331 50.14 39.2105 50.1394L44.7894 50.1415L61.985 50.1397L62.0045 52.5644C62.0073 52.9499 62.0526 53.3979 61.9853 53.7757C61.9367 54.049 61.8127 54.2996 61.6166 54.4964C61.4348 54.6787 61.2029 54.8174 60.9502 54.8709C60.5515 54.9553 60.0442 54.9002 59.6335 54.8998L56.8217 54.8925C56.717 54.2487 56.4887 53.6737 56.1077 53.1411C55.484 52.2694 54.5127 51.6596 53.4515 51.506C52.3895 51.3523 51.3039 51.6113 50.4436 52.2509C49.5531 52.9129 49.0327 53.8242 48.8735 54.9187L35.1831 54.9447C35.1435 54.4801 34.976 53.9262 34.7645 53.5101C34.6559 53.2963 34.4696 53.0772 34.4284 52.8392C34.3563 52.4245 34.4046 51.9254 34.4038 51.5015L34.4028 48.6971L34.8944 48.6849Z" fill="white"/>
<path d="M34.3936 38.8383L55.9067 38.8558L58.9742 38.8527C59.5144 38.8519 60.3614 38.7457 60.8574 38.9401C61.3087 39.117 61.6706 39.4686 61.8499 39.9225C61.9284 40.1212 62.0244 40.5358 61.9338 40.741C61.3967 40.8351 60.7063 40.7535 60.1548 40.7504L56.2487 40.7404L40.0403 40.744L37.4663 40.7417C37.2045 40.7411 36.7226 40.6789 36.4863 40.7621C36.3631 40.8054 36.3059 40.9076 36.2408 41.0108C36.1934 41.547 36.1107 46.2518 36.2791 46.4791C36.3681 46.5993 36.4931 46.6817 36.6434 46.7002C36.8896 46.7305 37.1838 46.6998 37.4352 46.698L39.0583 46.6931L41.7503 46.7022C42.2076 46.7036 42.6975 46.7413 43.1511 46.6953C43.2323 46.687 43.2887 46.6601 43.3473 46.6016C43.4253 46.5237 43.4596 46.4701 43.4799 46.3611C43.5451 46.0108 43.4991 45.5712 43.4965 45.2131L43.476 42.9856L43.468 41.7186C43.5834 41.6523 44.0135 41.6943 44.1641 41.6947C44.1667 42.3071 44.095 46.2438 44.2744 46.4835C44.3703 46.6118 44.517 46.6927 44.6763 46.7067C44.976 46.7331 45.2964 46.7069 45.5987 46.707L47.4306 46.7082C48.6199 46.7103 49.8538 46.7854 51.0382 46.7121C51.1538 46.705 51.269 46.6947 51.3593 46.6143C51.426 46.5549 51.4776 46.4859 51.4953 46.3965C51.5693 46.024 51.5028 45.4976 51.5028 45.1106L51.5013 41.6719L61.996 41.6629L61.986 47.7712L34.3974 47.8034L34.3936 38.8383Z" fill="white"/>
<path d="M42.4503 21.5773C42.6367 21.683 42.8459 22.017 42.9852 22.1912L44.4204 24.0164L50.5622 31.7651L53.3484 35.3503C53.7052 35.798 54.0366 36.292 54.4358 36.7022C54.5539 36.7448 54.6156 36.7612 54.7413 36.7381C54.9647 36.697 55.1057 36.4411 55.2268 36.2632C54.925 35.7808 54.549 35.3406 54.2022 34.8898C53.7778 34.3381 53.3685 33.7671 52.8932 33.2579L57.2219 28.2825L59.5682 31.0828L66.6409 39.6221C66.8391 39.8659 67.7263 40.8048 67.7761 41.0245C66.9469 42.3447 65.8774 43.5194 64.6992 44.5373L69.4945 43.3833L79.5174 55.9608C79.5499 56.0266 79.5312 56.0378 79.5096 56.1057C79.1926 57.0969 78.7665 58.0779 78.3392 59.026L54.6574 59.0003C55.3436 58.5733 55.9622 58.0284 56.3477 57.3071C56.5802 56.8722 56.6863 56.4032 56.7838 55.924C56.7866 55.9103 56.7805 55.8906 56.7922 55.8828C56.8232 55.8621 57.1364 55.8828 57.2066 55.8828L59.6102 55.8816C60.0836 55.881 60.626 55.935 61.086 55.8215C61.5067 55.7177 61.9356 55.4792 62.2399 55.17C62.5567 54.8483 62.7814 54.4281 62.8731 53.9856C62.9482 53.6224 62.9253 53.2279 62.9236 52.858L62.9204 51.3126L62.9257 45.8879L62.9175 41.9647C62.9137 41.3114 62.9912 40.5347 62.837 39.902C62.7176 39.4118 62.4635 38.9754 62.1048 38.6224C61.7273 38.2508 61.2381 37.9958 60.7112 37.9224C60.0235 37.8266 59.2522 37.889 58.5566 37.8895L54.6344 37.8884L40.2557 37.8976L35.1796 37.8963C33.954 37.8961 32.685 37.8259 31.4645 37.9064C29.9696 38.0051 28.4947 38.3672 27.1308 38.9866C26.3941 39.3212 25.2801 40.0567 25.0078 40.8537C24.8615 41.2817 24.3826 41.7062 24.1074 42.0774C23.787 42.5097 23.477 42.9562 23.2009 43.4182C22.7028 44.2518 22.2846 45.1448 21.8679 46.0215C21.6501 46.4799 21.3645 46.9908 21.2566 47.4874C21.069 48.3503 21.1544 49.3307 21.155 50.2119L21.1456 53.6438C20.8329 53.6405 20.2935 53.5697 20.0501 53.8022C19.9198 53.9267 19.8704 54.1438 19.8705 54.318C19.8706 54.4915 19.9091 54.7121 20.0438 54.8341C20.0992 54.8843 20.2225 54.9954 20.2919 55.0185C20.4587 55.0739 20.7569 55.0382 20.9353 55.0373L22.43 55.0374C22.6906 55.203 22.9448 55.6208 23.171 55.8582C23.6145 55.9215 24.1065 55.8838 24.5561 55.8849L27.2058 55.8892L27.4242 56.6179C27.9066 57.8019 28.6859 58.4842 29.8442 58.9679C29.6373 59.0091 29.4047 58.9894 29.193 58.9893L28.0114 58.9844L23.8639 58.976L6.42288 58.9652L5.26855 56.0548C5.35135 55.7396 7.70854 52.9425 8.0745 52.4904L11.9278 47.6866L15.5116 43.107L20.0339 44.8697C20.0112 44.7479 19.7784 44.51 19.6982 44.4051L18.2261 42.5292C17.8289 42.0153 17.4305 41.4895 17.0809 40.9423L18.4632 39.2126L19.1842 39.411L18.7783 38.8022C19.0536 38.3705 19.4169 37.9695 19.7369 37.5681L21.7168 35.1164L27.3484 28.3522C27.4654 28.4047 27.5609 28.5365 27.6484 28.629L28.3678 29.4365L31.6988 33.3955C31.3235 33.9585 30.9005 34.4996 30.4718 35.0228C30.2356 35.3112 29.924 35.6153 29.7408 35.939C29.6578 36.0858 29.6915 36.1944 29.738 36.3431C29.8842 36.5213 29.9914 36.5968 30.2248 36.6236C30.3885 36.5735 30.4757 36.5171 30.5944 36.3932C30.8976 36.0767 31.1611 35.6805 31.4325 35.3344L33.1097 33.2134L39.8854 24.6973L41.6386 22.5194C41.8937 22.2073 42.1399 21.8336 42.4503 21.5773Z" fill="white"/>
<path d="M41.2841 3.53259C44.6959 3.36822 48.3092 3.79215 51.6175 4.61637L55.3558 5.74228C57.2866 6.3759 59.1475 7.24758 60.9337 8.21073C68.1714 12.1131 74.0049 18.1046 77.7103 25.4481C82.2439 34.433 83.062 45.2706 79.9147 54.8376L79.8714 54.8288L75.1217 48.8476L71.9969 44.9754C71.505 44.3511 70.9526 43.7263 70.5393 43.0479C71.2774 43.1268 72.0175 43.424 72.7215 43.6538L76.2575 44.78C74.3297 42.9583 72.4648 40.9085 71.5118 38.3902L75.2121 39.2815C73.4966 37.5658 72.1238 35.4958 71.2841 33.2101C72.1165 33.2203 72.9547 33.4117 73.7816 33.5085C73.0337 32.4925 72.5238 31.3808 72.0747 30.2077C71.457 28.5942 71.0093 26.9312 70.7476 25.2232C70.3083 26.9698 69.8656 28.6535 69.2145 30.3376C68.8076 31.3904 68.2947 32.5248 67.5391 33.3715L67.4972 33.4177L70.0185 33.3457L68.9292 35.4228C68.3498 36.4317 67.6436 37.4334 66.868 38.302L57.2518 26.7952L52.3065 32.4206L42.76 20.3202C42.6884 20.215 42.6434 20.1426 42.5229 20.0878C42.426 20.0992 42.3441 20.1095 42.2698 20.1793C42.0659 20.3712 41.8982 20.6556 41.7181 20.8764L39.8893 23.1697L35.5232 28.6517L32.3463 32.6301L27.7347 27.2153C27.624 27.0915 27.5268 27.0105 27.3531 26.9997C27.2147 27.0455 27.1335 27.0948 27.0296 27.1976C26.7697 27.4545 26.5452 27.7774 26.3117 28.0594L25.01 29.6006L20.7892 34.7221L17.9731 38.1561C16.5845 36.7626 15.681 34.9301 15.2117 33.0279L17.7532 33.6184C15.9079 31.3429 15.182 28.4374 14.5989 25.6239C14.5002 25.7926 14.4621 26.0188 14.4077 26.2088L14.0917 27.3174C13.4639 29.5605 12.8227 31.8382 11.1991 33.5857L13.7839 33.058C13.1993 34.7777 12.2818 36.5894 10.9699 37.8703C10.4697 38.3587 9.90182 38.766 9.35688 39.2016C10.0094 39.048 10.6613 38.9544 11.3224 38.8519C12.0873 38.7333 12.8327 38.6235 13.6081 38.5967C12.3288 40.9364 10.5666 42.8874 8.62002 44.6855C8.89909 44.6709 9.23112 44.5476 9.50481 44.4782C11.1677 44.0563 12.7748 43.4497 14.4031 42.9154C14.3657 43.0832 13.6287 43.9261 13.4741 44.1269L8.0845 50.9308L4.8733 54.8542C3.67225 51.1753 3.1255 47.4717 2.98527 43.6168C2.9365 42.276 3.00864 40.933 3.11613 39.5969C3.6406 33.0785 5.84314 26.6697 9.46334 21.2182C10.7361 19.3016 12.2119 17.4882 13.783 15.8104C18.3066 10.9797 24.263 7.24551 30.5805 5.28558C34.0534 4.20816 37.6537 3.64657 41.2841 3.53259Z" fill="white"/>
<path d="M47.1623 7.75388L47.3253 7.76896C47.4264 7.84741 47.5123 7.91365 47.5466 8.0456C47.583 8.18518 47.5452 8.29299 47.4632 8.40169C47.226 8.71648 46.8851 9.00992 46.6042 9.28926C46.4777 9.41519 46.3645 9.57703 46.1808 9.6036C46.0069 9.57416 45.9221 9.5379 45.7951 9.41447C45.7387 9.27902 45.7369 9.22283 45.76 9.07787C45.9809 8.747 46.3301 8.47063 46.6111 8.18788C46.7756 8.02253 46.9294 7.81276 47.1623 7.75388Z" fill="black"/>
<path d="M38.6291 7.75383C38.7537 7.72932 38.8854 7.7374 38.9915 7.81666C39.1513 7.93614 39.2989 8.11081 39.4417 8.25318C39.6991 8.50972 40.1816 8.8746 40.2334 9.2349C40.192 9.4033 40.1356 9.47268 40.0136 9.59395L39.8593 9.6102C39.7399 9.61083 39.6675 9.57017 39.5841 9.49073L38.7009 8.57057C38.6244 8.48808 38.4474 8.32095 38.4057 8.22086C38.3939 8.19277 38.3886 8.09089 38.3913 8.068C38.4093 7.91836 38.5178 7.83776 38.6291 7.75383Z" fill="black"/>
<path d="M39.6575 15.1144L39.782 15.1194C39.9091 15.1333 40.0205 15.2049 40.0941 15.3083C40.1547 15.3935 40.1832 15.5137 40.1651 15.6166C40.1267 15.8332 39.056 16.8524 38.8205 17.0252C38.7785 17.0462 38.7571 17.06 38.7076 17.0689C38.5922 17.0895 38.4578 17.0298 38.3817 16.944C38.2953 16.8467 38.2889 16.7057 38.3211 16.5852C38.3827 16.3549 39.4325 15.2713 39.6575 15.1144Z" fill="black"/>
<path d="M46.093 15.1144L46.248 15.0936C46.4455 15.1459 46.5899 15.3405 46.7256 15.4854C47.0104 15.7899 47.3466 16.103 47.592 16.4384C47.6977 16.5828 47.6981 16.6927 47.6733 16.8647C47.5781 16.9871 47.5409 17.0274 47.3925 17.0723C47.2285 17.054 47.125 17.0295 47.0065 16.9091L45.9114 15.8093C45.8213 15.7023 45.7663 15.5938 45.7982 15.451C45.8353 15.2854 45.9562 15.1962 46.093 15.1144Z" fill="black"/>
<path d="M42.8297 5.77909C43.0281 5.7623 43.103 5.79717 43.2539 5.91373C43.3652 6.11408 43.3335 6.35356 43.3351 6.5777C43.3385 7.04491 43.378 7.56275 43.3093 8.02314C43.2237 8.15796 43.1843 8.19979 43.0389 8.26568L42.9821 8.26298C42.7881 8.23964 42.6926 8.14351 42.5816 7.99226C42.4802 7.54623 42.5292 6.99563 42.5306 6.53479C42.531 6.36541 42.5104 6.15178 42.5842 5.99461C42.6448 5.86562 42.7031 5.83289 42.8297 5.77909Z" fill="black"/>
<path d="M42.8223 16.5506C42.9163 16.533 43.0067 16.5398 43.1018 16.5421C43.184 16.5888 43.2552 16.6247 43.307 16.7081C43.4742 16.9775 43.3818 17.8472 43.3788 18.1947C43.3774 18.3608 43.3978 18.5727 43.3465 18.7319C43.3021 18.8696 43.2387 18.9018 43.1193 18.9741C43.0541 18.9845 42.9918 18.9889 42.9257 18.9818C42.8259 18.9712 42.7245 18.9161 42.6635 18.838C42.4834 18.6072 42.5631 17.757 42.5624 17.4338C42.5621 17.2589 42.5382 17.0498 42.5756 16.881C42.6152 16.7027 42.6692 16.6461 42.8223 16.5506Z" fill="black"/>
<path d="M47.2977 11.9279C47.3955 11.9123 47.3542 11.9155 47.4514 11.9135L48.7004 11.9078C48.8973 11.9078 49.1614 11.878 49.3471 11.9386C49.4191 11.9622 49.4676 12.0108 49.5203 12.0625C49.5766 12.1822 49.6076 12.2884 49.5715 12.4216C49.5345 12.5575 49.4129 12.6202 49.3025 12.6929L49.1649 12.7098C48.7248 12.7376 48.2688 12.7182 47.8271 12.7194C47.6488 12.7198 47.3753 12.7513 47.2117 12.6908C47.1724 12.6763 47.0938 12.5874 47.0582 12.5562C47.0071 12.4337 46.962 12.3073 47.0119 12.1747C47.0685 12.0241 47.1658 11.992 47.2977 11.9279Z" fill="black"/>
<path d="M36.5561 11.9278C36.5913 11.9168 36.6074 11.9103 36.6478 11.906C36.9993 11.8688 37.3847 11.8959 37.7384 11.896C37.9944 11.896 38.2889 11.8658 38.5378 11.9069C38.6303 11.9222 38.6936 11.9754 38.7623 12.0346C38.8362 12.1792 38.8685 12.2794 38.8212 12.4409C38.7824 12.5737 38.7034 12.6285 38.589 12.6908C38.4849 12.7138 38.3905 12.7301 38.2833 12.7324L37.0202 12.7401C36.9088 12.7397 36.6514 12.7565 36.5547 12.7107C36.5208 12.6947 36.4465 12.6328 36.4198 12.601C36.3234 12.4858 36.3084 12.3419 36.331 12.1971C36.3516 12.0644 36.453 11.995 36.5561 11.9278Z" fill="black"/>
<path d="M27.5797 17.262C27.8848 17.2444 28.2315 17.2705 28.5203 17.3719C29.1061 17.5776 29.7253 18.06 29.9884 18.6307L30.0115 18.6829L30.1405 18.673C30.9306 18.6181 31.4972 18.6288 32.124 19.1955C32.6048 19.6303 32.759 20.0965 32.7949 20.7267L33.7658 20.7148C33.9964 20.713 34.3008 20.6747 34.4927 20.8291C34.598 20.9138 34.6577 21.0603 34.6533 21.1957C34.6475 21.3759 34.5843 21.4512 34.4731 21.5772C34.2249 21.6624 33.9735 21.6396 33.7141 21.6402L32.5141 21.6398L29.1568 21.6451L23.9659 21.6517L22.6423 21.6543C22.507 21.6543 22.2238 21.6806 22.1019 21.6313C22.0652 21.6165 21.9795 21.5596 21.9493 21.5276C21.8601 21.4338 21.8332 21.3339 21.8311 21.2068C21.8282 21.0313 21.9071 20.9294 22.0197 20.804C22.4866 20.6933 23.045 20.7519 23.5249 20.7532C23.5813 20.3037 23.6731 19.9108 23.989 19.5631C24.376 19.1373 24.8351 19.0142 25.3911 18.9937C25.5627 18.7149 25.618 18.4342 25.8368 18.168C26.2939 17.6117 26.8717 17.3431 27.5797 17.262Z" fill="black"/>
<path d="M27.4919 18.1063C27.9102 18.0877 28.3083 18.125 28.6734 18.3503C29.1071 18.6178 29.3054 19.108 29.4082 19.584C29.4275 19.6738 29.4561 19.6796 29.5215 19.7404C29.8278 19.7265 30.0816 19.591 30.3638 19.4899C30.6547 19.3858 31.0073 19.4675 31.2754 19.6034C31.7439 19.8407 31.8842 20.2648 32.0357 20.7299C31.7193 20.7643 31.3831 20.7421 31.0644 20.7426L29.314 20.7445L25.5558 20.7518C25.3111 20.7511 24.6132 20.8171 24.431 20.702C24.4271 20.5101 24.4544 20.3683 24.581 20.2166C24.9679 19.7534 25.5054 19.7821 26.0525 19.7486C26.1628 19.4359 26.2343 19.0737 26.4167 18.7946C26.6846 18.3851 27.0309 18.2109 27.4919 18.1063Z" fill="white"/>
<path d="M58.126 17.2564C58.5497 17.2143 58.981 17.2201 59.3866 17.3608C60.0164 17.5791 60.578 17.9984 60.8718 18.6084C60.9111 18.69 61.0834 18.6345 61.1706 18.6245C61.798 18.5528 62.293 18.6219 62.8125 19.0085C63.422 19.4619 63.6507 20.0301 63.7629 20.7564C64.1861 20.7523 64.8765 20.6486 65.2404 20.8729C65.308 20.962 65.3567 21.0296 65.3644 21.1472C65.3743 21.297 65.3245 21.4059 65.2238 21.5095C65.1699 21.5649 65.1318 21.5893 65.0528 21.6012C64.6599 21.6608 64.1856 21.6198 63.7852 21.6241L60.5487 21.6299L55.8269 21.6376L54.2117 21.6427C53.9178 21.6429 53.5817 21.6781 53.3012 21.5868C53.1964 21.4874 53.104 21.4203 53.091 21.2632C53.0782 21.1067 53.1225 20.9707 53.2157 20.8488C53.52 20.675 53.9658 20.7287 54.3108 20.7266C54.3724 20.2858 54.4628 19.9052 54.7477 19.5475C55.0214 19.2037 55.4412 18.9475 55.8796 18.896L55.9171 18.8922L56.2253 18.384C56.6851 17.7239 57.3527 17.395 58.126 17.2564Z" fill="black"/>
<path d="M58.3714 18.0678C58.6899 18.045 59.0301 18.1003 59.3231 18.225C59.9797 18.5045 60.0695 18.8798 60.3383 19.4679C60.3868 19.5742 60.4666 19.6618 60.5839 19.6923C60.8155 19.7523 61.0594 19.5656 61.2658 19.4843C61.5567 19.3697 61.8655 19.4598 62.1356 19.5895C62.6004 19.8126 62.7772 20.2725 62.9428 20.725L59.9792 20.7233L55.1367 20.7177C55.1797 20.5479 55.2501 20.3659 55.3456 20.219C55.506 19.9722 55.795 19.8294 56.0779 19.782L56.2338 19.7559C56.7591 19.6408 56.733 19.19 57.0111 18.8164C57.3551 18.3544 57.8202 18.1504 58.3714 18.0678Z" fill="white"/>
<path d="M42.8252 8.69337C43.7257 8.63161 44.6475 9.00915 45.3276 9.58354C46.0882 10.2258 46.5487 11.1809 46.6296 12.1675C46.7019 13.0475 46.3388 14.115 45.763 14.7792C45.0626 15.5872 44.1555 15.9813 43.0989 16.0513C42.2105 16.1304 41.2486 15.7816 40.5702 15.2109C39.8391 14.5959 39.3596 13.6323 39.2866 12.6799C39.2126 11.7139 39.4887 10.7203 40.131 9.97705C40.8631 9.12997 41.7299 8.77774 42.8252 8.69337Z" fill="black"/>
<path d="M42.5921 9.58371C43.2437 9.51334 43.9003 9.64493 44.4474 10.0112C45.0836 10.4373 45.5316 11.076 45.6723 11.831C45.8132 12.587 45.6599 13.397 45.2101 14.0261C44.7777 14.6314 44.1131 15.0143 43.3864 15.1375C42.7191 15.2479 41.9626 15.0892 41.3995 14.7123C40.8054 14.3146 40.3165 13.6196 40.1967 12.9103C40.0649 12.1299 40.2189 11.3858 40.6808 10.7356C41.1541 10.0692 41.7927 9.71566 42.5921 9.58371Z" fill="white"/>
<path d="M15.5687 71.9647C14.9671 71.9647 14.4015 71.8461 13.8719 71.6088C13.3423 71.3674 12.8763 71.0348 12.4738 70.6111C12.0755 70.1874 11.762 69.6981 11.5332 69.1431C11.3087 68.5839 11.1964 67.9865 11.1964 67.351C11.1964 66.7112 11.3087 66.1139 11.5332 65.5589C11.762 64.9996 12.0755 64.5103 12.4738 64.0909C12.8763 63.6672 13.3423 63.3367 13.8719 63.0995C14.4015 62.858 14.9671 62.7372 15.5687 62.7372C16.2889 62.7372 16.9519 62.9046 17.5578 63.2393C18.1636 63.5697 18.6657 64.0125 19.0639 64.5675L17.3608 65.4826C17.1405 65.2284 16.8757 65.025 16.5664 64.8725C16.2571 64.72 15.9246 64.6437 15.5687 64.6437C15.2297 64.6437 14.9099 64.7137 14.6091 64.8535C14.3125 64.9933 14.0498 65.1882 13.821 65.4381C13.5965 65.6839 13.4207 65.9698 13.2936 66.2961C13.1665 66.6223 13.1029 66.9739 13.1029 67.351C13.1029 67.7238 13.1665 68.0733 13.2936 68.3996C13.4207 68.7258 13.5965 69.0139 13.821 69.2638C14.0498 69.5096 14.3125 69.7045 14.6091 69.8485C14.9099 69.9883 15.2297 70.0582 15.5687 70.0582C15.9246 70.0582 16.2571 69.982 16.5664 69.8294C16.8757 69.6727 17.1405 69.4651 17.3608 69.2067L19.0639 70.1345C18.6657 70.6853 18.1636 71.128 17.5578 71.4627C16.9519 71.7974 16.2889 71.9647 15.5687 71.9647ZM22.9271 62.9025H25.0751L28.3034 71.7995H26.2825L25.7741 70.4014H22.228L21.7196 71.7995H19.6987L22.9271 62.9025ZM22.9271 68.4949H25.0751L23.9947 65.5462L22.9271 68.4949ZM29.0635 71.7995L30.792 62.9025H32.4189L34.4144 68.1517L36.4099 62.9025H38.0368L39.7653 71.7995H37.8207L36.8928 66.9951L35.0753 71.7995H33.7535L31.9359 66.9951L31.0081 71.7995H29.0635ZM41.0288 71.7995V62.9025H44.3842C44.8714 62.9025 45.3121 63.0275 45.7061 63.2774C46.1043 63.5231 46.4199 63.8536 46.653 64.2688C46.886 64.6798 47.0025 65.131 47.0025 65.6224C47.0025 66.1223 46.8817 66.5778 46.6403 66.9887C46.403 67.3997 46.0853 67.728 45.687 67.9738C45.2888 68.2195 44.8545 68.3424 44.3842 68.3424H42.9353V71.7995H41.0288ZM42.9353 66.4359H44.1682C44.3376 66.4359 44.4923 66.3935 44.6321 66.3088C44.7719 66.2198 44.8842 66.1033 44.9689 65.9592C45.0536 65.8152 45.096 65.6563 45.096 65.4826C45.096 65.3089 45.0536 65.15 44.9689 65.006C44.8842 64.8619 44.7719 64.7475 44.6321 64.6628C44.4923 64.5738 44.3376 64.5294 44.1682 64.5294H42.9353V66.4359ZM51.5312 71.9647C51.0313 71.9647 50.5526 71.8864 50.095 71.7296C49.6374 71.5686 49.2371 71.3398 48.8939 71.0433C48.5507 70.7424 48.3029 70.3844 48.1504 69.9693L49.9425 69.3083C49.9849 69.4312 50.0781 69.5498 50.2221 69.6642C50.3704 69.7786 50.5568 69.8739 50.7813 69.9502C51.0059 70.0222 51.2559 70.0582 51.5312 70.0582C51.7854 70.0582 52.0248 70.0222 52.2494 69.9502C52.4739 69.8739 52.6561 69.7701 52.7959 69.6388C52.9357 69.5075 53.0056 69.3549 53.0056 69.1812C53.0056 69.0033 52.9315 68.8571 52.7832 68.7427C52.6391 68.6241 52.4527 68.5309 52.2239 68.4631C51.9994 68.3911 51.7685 68.3381 51.5312 68.3042C50.8873 68.211 50.309 68.0585 49.7963 67.8467C49.2879 67.6306 48.8854 67.334 48.5889 66.957C48.2965 66.5799 48.1504 66.1012 48.1504 65.5207C48.1504 64.9657 48.3071 64.4806 48.6206 64.0654C48.9342 63.646 49.3472 63.3198 49.8599 63.0868C50.3767 62.8537 50.9339 62.7372 51.5312 62.7372C52.0312 62.7372 52.5099 62.8177 52.9675 62.9787C53.4293 63.1355 53.8318 63.3643 54.1749 63.6651C54.5181 63.9659 54.7638 64.326 54.9121 64.7454L53.12 65.3936C53.0776 65.2708 52.9823 65.1543 52.834 65.0441C52.69 64.9297 52.5057 64.8365 52.2811 64.7645C52.0566 64.6925 51.8066 64.6565 51.5312 64.6565C51.2855 64.6522 51.0504 64.6882 50.8258 64.7645C50.6013 64.8408 50.417 64.9445 50.2729 65.0759C50.1289 65.2072 50.0569 65.3555 50.0569 65.5207C50.0569 65.7495 50.1247 65.9211 50.2602 66.0355C50.3958 66.1456 50.5737 66.224 50.7941 66.2706C51.0186 66.3172 51.2643 66.3596 51.5312 66.3977C52.1413 66.4867 52.7027 66.6456 53.2153 66.8744C53.728 67.1031 54.1389 67.4082 54.4482 67.7895C54.7575 68.1708 54.9121 68.6347 54.9121 69.1812C54.9121 69.7362 54.7554 70.2235 54.4418 70.6429C54.1326 71.0581 53.7216 71.3822 53.209 71.6152C52.6963 71.8482 52.1371 71.9647 51.5312 71.9647ZM56.4988 71.7995V62.9025H58.4053V71.7995H56.4988ZM60.1187 71.7995V62.9025H63.0674C63.6817 62.9025 64.2558 63.019 64.7896 63.252C65.3277 63.4808 65.8 63.8006 66.2068 64.2116C66.6177 64.6183 66.9376 65.0907 67.1664 65.6288C67.3994 66.1626 67.5159 66.7367 67.5159 67.351C67.5159 67.9653 67.3994 68.5415 67.1664 69.0796C66.9376 69.6134 66.6177 70.0858 66.2068 70.4967C65.8 70.9034 65.3277 71.2233 64.7896 71.4563C64.2558 71.6851 63.6817 71.7995 63.0674 71.7995H60.1187ZM62.0252 69.893H63.0674C63.4106 69.893 63.7347 69.8273 64.0397 69.696C64.3447 69.5647 64.6159 69.3825 64.8531 69.1495C65.0904 68.9164 65.2747 68.6474 65.406 68.3424C65.5416 68.0331 65.6094 67.7026 65.6094 67.351C65.6094 66.9993 65.5416 66.671 65.406 66.366C65.2747 66.0609 65.0904 65.7919 64.8531 65.5589C64.6201 65.3216 64.3511 65.1373 64.0461 65.006C63.741 64.8746 63.4148 64.809 63.0674 64.809H62.0252V69.893ZM68.472 71.7995V62.9025H74.1407V64.809H70.3785V66.08H73.2764V67.9865H70.3785V69.893H74.1407V71.7995H68.472Z" fill="black"/>
</svg>
